<?xml version="1.0" standalone="no"?>
<!DOCTYPE svg PUBLIC "-//W3C//DTD SVG 20010904//EN"
 "http://www.w3.org/TR/2001/REC-SVG-20010904/DTD/svg10.dtd">
<svg version="1.0" xmlns="http://www.w3.org/2000/svg"
 width="700.000000pt" height="700.000000pt" viewBox="0 0 700.000000 700.000000"
 preserveAspectRatio="xMidYMid meet">
<metadata>
Created by potrace 1.11, written by Peter Selinger 2001-2013
</metadata>
<g transform="translate(0.000000,700.000000) scale(0.100000,-0.100000)"
fill="#000000" stroke="none">
<path d="M3320 5617 c-3 -3 -35 -7 -72 -11 -36 -3 -72 -8 -80 -10 -7 -3 -32
-7 -54 -10 -136 -17 -403 -103 -569 -183 -169 -82 -343 -194 -356 -229 -10
-29 11 -67 43 -78 23 -8 35 -4 85 31 284 198 660 333 1003 361 145 11 381 5
470 -13 14 -3 45 -8 70 -11 206 -28 514 -145 725 -274 36 -22 76 -40 88 -40
55 0 79 59 41 101 -26 29 -195 123 -322 179 -171 76 -385 139 -562 166 -25 3
-54 8 -65 11 -26 6 -439 15 -445 10z"/>
<path d="M3437 5394 c-1 -1 -45 -4 -98 -8 -53 -3 -120 -11 -150 -16 -30 -6
-67 -13 -84 -16 -197 -33 -515 -165 -695 -287 -201 -137 -338 -267 -504 -477
-47 -60 -127 -195 -181 -305 -130 -267 -192 -524 -200 -835 -3 -125 -14 -270
-21 -281 -2 -4 -6 -24 -10 -45 -10 -64 -61 -210 -104 -295 -59 -118 -132 -219
-230 -318 -89 -89 -123 -114 -790 -571 -179 -122 -336 -233 -349 -245 -21 -21
-23 -28 -15 -57 6 -22 18 -36 36 -42 27 -9 80 15 463 214 72 37 229 118 350
180 121 62 283 145 360 185 77 40 253 130 390 200 138 70 254 131 260 136 19
18 35 7 69 -50 186 -306 500 -580 825 -721 262 -114 502 -160 791 -154 74 2
144 5 156 8 12 2 45 7 75 11 270 33 637 195 874 386 79 65 271 267 328 346
379 532 457 1207 207 1791 -16 37 -26 70 -22 73 4 4 93 50 197 104 105 54 273
140 375 193 102 52 257 132 345 177 147 76 328 169 735 377 85 44 161 87 168
96 29 37 -2 95 -50 94 -13 0 -104 -29 -203 -65 -1162 -423 -1094 -402 -1350
-401 -270 2 -478 73 -751 259 -181 123 -483 264 -617 289 -15 2 -30 7 -34 9
-14 9 -234 46 -310 53 -66 6 -232 11 -236 8z m298 -139 c22 -4 74 -13 115 -21
41 -9 86 -17 100 -20 67 -13 277 -92 375 -141 61 -30 170 -95 244 -145 212
-143 347 -204 566 -254 64 -15 119 -19 275 -18 216 0 273 10 471 79 56 19 104
35 107 35 4 -1 -24 -17 -63 -36 -38 -19 -155 -79 -260 -133 -104 -54 -284
-147 -400 -206 -115 -59 -220 -118 -232 -131 -26 -28 -25 -37 20 -134 32 -68
92 -233 102 -277 11 -52 35 -173 40 -203 11 -60 14 -341 5 -415 -48 -396 -220
-754 -491 -1024 -264 -264 -617 -440 -984 -489 -70 -9 -399 -9 -460 1 -394 63
-722 230 -989 502 -37 38 -80 86 -95 105 -14 19 -31 41 -38 48 -20 20 -118
173 -149 230 -19 35 -36 55 -53 59 -27 7 -73 -16 -688 -332 -167 -86 -303
-154 -303 -152 0 2 35 28 78 57 300 205 503 494 580 825 31 134 31 127 47 478
3 60 7 112 9 115 2 4 6 30 10 59 9 77 61 271 100 371 70 181 161 339 291 502
49 62 187 198 259 256 274 223 577 355 936 409 86 12 398 13 475 0z"/>
<path d="M3270 4945 c-129 -22 -138 -24 -262 -65 -381 -125 -704 -407 -885
-769 -61 -123 -64 -153 -14 -177 42 -21 69 1 111 92 134 290 375 531 674 674
83 39 201 84 251 94 42 9 125 27 150 31 50 10 296 13 355 5 30 -4 75 -11 100
-14 25 -4 93 -21 152 -38 102 -29 109 -30 133 -14 18 12 25 25 25 50 0 18 -6
38 -12 44 -20 16 -134 51 -243 74 -123 26 -416 33 -535 13z"/>
<path d="M4130 4780 c-42 -42 -23 -74 78 -133 43 -25 108 -68 144 -95 101 -76
111 -80 147 -53 38 29 31 69 -20 114 -86 74 -271 187 -308 187 -12 0 -30 -9
-41 -20z"/>
<path d="M3359 4745 c-3 -2 -26 -7 -52 -10 -27 -4 -83 -15 -125 -26 -42 -11
-85 -21 -95 -24 -36 -8 -194 -80 -252 -114 -282 -163 -494 -424 -598 -734 -48
-140 -61 -229 -62 -399 0 -146 1 -158 20 -172 38 -29 1 -45 610 269 88 45 259
133 380 195 339 173 672 344 1053 540 144 75 149 80 142 130 -3 24 -27 46
-120 110 -154 105 -321 176 -505 215 -72 16 -385 32 -396 20z m290 -130 c127
-15 270 -59 395 -121 88 -44 160 -94 149 -104 -4 -4 -116 -62 -248 -130 -132
-68 -312 -160 -400 -205 -168 -86 -428 -220 -780 -400 -115 -59 -265 -136
-332 -171 -67 -35 -127 -64 -133 -64 -10 0 -9 37 6 158 35 294 195 582 428
770 107 87 205 144 351 203 76 31 222 63 325 71 53 4 175 1 239 -7z"/>
<path d="M4941 4460 c-41 -22 -78 -45 -83 -52 -14 -23 -9 -57 13 -79 25 -25
60 -19 131 22 27 16 53 29 57 29 16 0 34 30 34 57 0 29 -34 63 -62 63 -9 0
-49 -18 -90 -40z"/>
<path d="M4669 4320 c-61 -32 -77 -67 -48 -104 13 -16 30 -26 46 -26 26 0 112
44 114 58 0 4 2 17 3 29 3 29 -28 63 -57 63 -12 -1 -38 -9 -58 -20z"/>
<path d="M4399 4182 c-41 -22 -180 -93 -309 -159 -357 -183 -719 -369 -875
-449 -158 -81 -181 -104 -155 -151 32 -57 11 -66 635 257 72 37 247 127 390
200 446 228 454 232 464 262 8 22 6 32 -10 53 -28 34 -53 32 -140 -13z"/>
<path d="M4621 4064 c-214 -109 -525 -269 -846 -434 -82 -43 -253 -130 -380
-195 -126 -65 -293 -150 -370 -190 -77 -40 -239 -123 -360 -185 -449 -230
-550 -283 -563 -293 -8 -6 -12 -25 -10 -46 2 -26 10 -39 30 -51 26 -14 32 -13
124 33 53 27 100 45 104 40 4 -4 31 -44 61 -88 109 -162 309 -335 494 -428 67
-33 222 -92 268 -101 12 -3 47 -9 77 -15 30 -6 69 -13 85 -16 38 -7 290 -7
330 0 188 33 292 66 430 135 145 72 231 135 350 254 211 212 332 459 375 764
14 102 11 288 -7 392 -8 47 -32 137 -53 200 -22 63 -41 119 -42 123 -2 5 33
27 78 50 101 53 114 63 114 96 0 34 -10 48 -41 59 -22 9 -55 -5 -248 -104z
m-2 -198 c25 -55 58 -172 74 -268 14 -75 15 -268 3 -348 -31 -209 -139 -455
-258 -591 -133 -152 -249 -244 -403 -321 -160 -81 -314 -118 -500 -123 -210
-5 -375 30 -560 120 -155 75 -273 165 -389 296 -44 50 -131 177 -125 183 2 2
121 63 264 136 143 73 310 158 370 190 61 31 218 112 350 180 132 67 303 155
380 195 77 40 271 139 430 220 160 82 299 154 310 162 29 19 33 17 54 -31z"/>
<path d="M4474 3716 c-16 -26 -16 -22 11 -156 8 -39 9 -219 1 -278 -6 -41 -4
-59 8 -78 17 -25 58 -32 85 -15 60 38 43 508 -19 541 -33 18 -69 12 -86 -14z"/>
<path d="M4271 2789 c-64 -77 -72 -108 -33 -140 41 -32 87 -4 154 96 33 48 35
68 8 95 -37 37 -64 26 -129 -51z"/>
<path d="M2704 2717 c-41 -35 -27 -69 57 -142 112 -97 152 -110 185 -60 24 37
8 67 -64 122 -37 28 -78 63 -91 77 -30 32 -52 33 -87 3z"/>
<path d="M3928 2520 c-153 -81 -384 -114 -598 -85 -48 6 -58 4 -77 -14 -12
-11 -20 -28 -18 -38 2 -10 4 -24 4 -30 4 -58 325 -75 516 -27 81 20 239 81
266 103 13 10 22 29 22 45 0 56 -54 77 -115 46z"/>
<path d="M2024 3812 c-17 -13 -33 -59 -35 -97 0 -2 -4 -19 -10 -37 -8 -29 -22
-191 -21 -258 0 -127 2 -141 27 -165 30 -31 49 -31 79 -2 21 21 22 30 21 144
-2 108 5 196 20 272 3 14 8 49 12 77 5 46 3 53 -18 68 -30 20 -48 20 -75 -2z"/>
<path d="M2589 3253 c-189 -97 -354 -185 -367 -196 -25 -23 -23 -58 4 -89 27
-29 36 -26 319 122 50 26 172 89 273 139 100 51 182 99 182 106 0 7 2 20 5 28
8 18 -24 56 -51 61 -12 3 -154 -64 -365 -171z"/>
<path d="M1948 2925 c-104 -53 -138 -82 -138 -117 0 -21 31 -51 56 -54 20 -3
216 92 245 119 36 34 14 96 -38 103 -10 1 -66 -22 -125 -51z"/>
<path d="M2005 5030 c-50 -19 -260 -266 -365 -430 -94 -147 -225 -435 -246
-539 -11 -53 55 -91 99 -58 9 6 28 48 42 92 67 199 174 397 316 586 66 87 58
78 162 186 81 85 94 116 60 145 -25 21 -45 27 -68 18z"/>
<path d="M6536 4821 c-48 -25 -97 -57 -107 -70 -32 -39 -4 -91 49 -91 38 0
218 98 231 126 13 28 1 68 -24 78 -32 12 -60 3 -149 -43z"/>
<path d="M6113 4603 c-64 -33 -83 -64 -63 -100 25 -44 51 -46 122 -10 74 38
92 69 64 111 -21 33 -55 33 -123 -1z"/>
<path d="M5729 4405 c-235 -120 -240 -124 -244 -157 -4 -32 27 -68 57 -68 19
0 166 71 368 178 85 45 104 74 77 115 -29 44 -51 38 -258 -68z"/>
<path d="M5373 4020 c-35 -14 -36 -48 -8 -181 14 -68 30 -140 34 -159 12 -59
80 -74 114 -26 14 20 -15 205 -49 307 -10 31 -23 50 -40 58 -14 6 -26 11 -27
10 -1 0 -12 -4 -24 -9z"/>
<path d="M1362 3900 c-21 -25 -41 -120 -31 -148 17 -45 87 -53 109 -13 9 18
18 61 25 118 6 52 -68 83 -103 43z"/>
<path d="M5453 3529 c-33 -12 -39 -35 -41 -149 -6 -299 -83 -596 -228 -867
-75 -143 -158 -258 -286 -401 -52 -58 -57 -78 -30 -112 30 -37 68 -29 117 21
248 262 453 660 510 988 3 19 7 37 9 40 2 3 7 35 11 71 4 36 9 68 11 72 2 3 6
70 9 148 5 116 3 146 -9 165 -17 26 -43 35 -73 24z"/>
<path d="M452 3408 c-122 -40 -202 -150 -207 -283 -3 -91 22 -159 84 -225 56
-60 124 -92 211 -97 203 -15 370 185 321 384 -18 71 -73 148 -134 187 -88 56
-175 66 -275 34z m234 -163 c47 -47 65 -103 54 -164 -27 -146 -205 -206 -312
-104 -113 108 -55 299 98 322 66 9 111 -6 160 -54z"/>
<path d="M6465 2757 c-164 -55 -263 -181 -279 -359 -12 -127 73 -280 195 -351
285 -167 642 90 574 413 -26 121 -101 217 -213 272 -55 27 -78 32 -151 35 -52
2 -102 -2 -126 -10z m193 -123 c75 -24 142 -91 166 -168 39 -125 -8 -247 -123
-314 -40 -23 -57 -27 -126 -27 -69 0 -86 4 -127 27 -187 110 -182 370 10 465
69 35 127 40 200 17z"/>
<path d="M1510 2239 c-133 -69 -160 -90 -155 -118 2 -9 4 -19 4 -23 2 -15 34
-38 54 -38 27 0 277 126 295 148 28 36 0 95 -47 98 -11 1 -79 -30 -151 -67z"/>
<path d="M1921 2205 c-16 -21 -18 -31 -10 -54 14 -39 178 -211 206 -216 30 -5
65 25 68 58 3 21 -7 38 -42 75 -25 26 -68 73 -96 105 -58 66 -92 75 -126 32z"/>
<path d="M1055 2006 c-77 -40 -230 -119 -340 -175 -110 -56 -206 -110 -212
-119 -19 -23 -16 -55 7 -80 28 -29 45 -24 205 58 72 37 220 113 330 170 110
56 207 110 216 120 30 35 -4 101 -51 100 -8 -1 -78 -34 -155 -74z"/>
<path d="M4699 1926 c-286 -225 -644 -374 -990 -410 -116 -11 -320 -13 -399
-2 -19 3 -60 8 -90 11 -62 8 -294 62 -319 75 -9 4 -54 23 -101 40 -141 54
-311 146 -449 246 -40 28 -72 31 -94 7 -27 -32 -26 -64 5 -93 43 -40 218 -150
319 -201 173 -87 442 -174 599 -195 25 -3 61 -8 80 -11 64 -9 394 -12 455 -3
33 5 83 11 110 15 67 8 264 58 356 91 107 38 300 132 399 194 120 75 240 168
249 193 15 40 -3 70 -49 81 -20 5 -37 -3 -81 -38z"/>
</g>
</svg>
